<?xml version="1.0" encoding="UTF-8"?>
<svg xmlns="http://www.w3.org/2000/svg" viewBox="0 0 512 512" width="20" height="20"><g id="Outline"><path d="M376,16a119.769,119.769,0,0,0-91.194,42.094A199.1,199.1,0,0,0,170.481,75.18L91.066,84.009a8,8,0,0,0-4.772,13.609l22.744,22.735a200.8,200.8,0,0,0-21.195,27.308l13.442,8.678A185.3,185.3,0,0,1,125.9,125.9a8,8,0,0,0,0-11.314L109.38,98.072,184.716,89.7l-8.368,75.342-10.862-10.858a8,8,0,0,0-11.313,0,143.975,143.975,0,0,0-42.14,104.252,120.178,120.178,0,0,0-39.151,15.54A184.73,184.73,0,0,1,95,166.834L81,159.074a200.86,200.86,0,0,0-22.934,125.7,120.066,120.066,0,0,0-20.555,22.644l13.123,9.153A104.013,104.013,0,1,1,32,376a103.06,103.06,0,0,1,10-44.567l-14.452-6.866A118.941,118.941,0,0,0,16,376a119.946,119.946,0,0,0,211.178,77.925,200.345,200.345,0,0,0,129.436-25.058l58.658-6.516a8,8,0,0,0,4.775-13.608L402.964,391.66a199.445,199.445,0,0,0,52.862-143.992l-15.987.664A184.523,184.523,0,0,1,386.1,386.113a8,8,0,0,0,0,11.314l10.858,10.858-43.625,4.846c-.04,0-.08,0-.12.008l-31.591,3.514,8.369-75.34,16.52,16.515a8,8,0,0,0,11.313,0,143.99,143.99,0,0,0,42.141-104.234A120.006,120.006,0,0,0,376,16ZM306.914,431.367a7.728,7.728,0,0,0,.619.556c.073.059.151.111.226.167.145.11.291.219.442.318.02.013.037.028.056.04a184.83,184.83,0,0,1-70.237,6.662,119.261,119.261,0,0,0,15.574-39.145,144.2,144.2,0,0,0,54.879-9.841l-3.854,34.7A8,8,0,0,0,306.914,431.367Zm45.078-90.686-22.456-22.449a8,8,0,0,0-13.607,4.775L310.5,371.843a128.038,128.038,0,0,1-54.776,12.144c.174-2.641.272-5.3.272-7.987A120.136,120.136,0,0,0,136,256c-2.674,0-5.336.1-7.985.275a127.989,127.989,0,0,1,31.993-84.946l16.8,16.789a8,8,0,0,0,13.607-4.774l11.31-101.822a7.9,7.9,0,0,0,.021-1.383A183,183,0,0,1,273.98,72.89,119.276,119.276,0,0,0,258.4,112.043a145.248,145.248,0,0,0-53.223,9.2l5.638,14.974a129.159,129.159,0,0,1,45.452-8.185c-.174,2.635-.271,5.29-.271,7.968A120.136,120.136,0,0,0,376,256c2.684,0,5.345-.1,7.985-.272A128,128,0,0,1,351.992,340.681ZM376,240A104,104,0,1,1,480,136,104.118,104.118,0,0,1,376,240Zm30.36-38.7,6.728,14.516a88.021,88.021,0,0,1-90.02-150.147l9.628,12.78A72.027,72.027,0,0,0,406.36,201.3Zm55.247-85.687a88.038,88.038,0,0,1-32.675,90.71l-9.628-12.78A72.027,72.027,0,0,0,345.64,70.7L338.912,56.18a88.071,88.071,0,0,1,122.7,59.437ZM384,80V96h16v16H368a8,8,0,0,0,0,16h16a24,24,0,0,1,0,48v16H368V176H352V160h32a8,8,0,0,0,0-16H368a24,24,0,0,1,0-48V80Zm-64,48h16v16H320Zm112,16H416V128h16ZM83.068,305.673l9.628,12.78A72.027,72.027,0,0,0,166.36,441.3l6.728,14.516a88.021,88.021,0,0,1-90.02-150.147ZM188.932,446.327l-9.628-12.78A72.027,72.027,0,0,0,105.64,310.7L98.912,296.18a88.021,88.021,0,0,1,90.02,150.147ZM88,352h16a32,32,0,0,1,64,0H152a16,16,0,0,0-32,0h16v16H120v16h16v16H120a16,16,0,0,0,32,0h16a32,32,0,0,1-64,0H88V384h16V368H88Zm104,32H176V368h16Z"/></g></svg>
